<svg width="552" height="345" viewBox="0 0 552 345" fill="none" xmlns="http://www.w3.org/2000/svg">
<rect width="552" height="345" fill="white"/>
<path d="M477.813 210.824C483.437 210.824 487.807 206.38 487.807 200.701C487.807 195.021 483.437 190.577 477.813 190.577C472.189 190.577 467.819 195.021 467.819 200.701C467.819 206.38 472.189 210.824 477.813 210.824ZM477.813 209.017C473.314 209.017 469.773 205.366 469.773 200.701C469.773 196.035 473.314 192.384 477.813 192.384C482.312 192.384 485.853 196.035 485.853 200.701C485.853 205.366 482.312 209.017 477.813 209.017ZM475.748 205.661V201.918H477.684L480.228 205.661H482.497L479.786 201.715C481.169 201.272 481.999 200.147 481.999 198.709C481.999 196.791 480.726 195.63 478.624 195.63H473.904V205.661H475.748ZM475.748 197.345H478.237C479.343 197.345 479.989 197.861 479.989 198.783C479.989 199.779 479.343 200.35 478.237 200.35H475.748V197.345Z" fill="#222222"/>
<path d="M253.891 189.782V200.884H266.875V189.782H253.891Z" fill="#222222"/>
<path d="M253.891 207.094V257.714H266.875V207.094H253.891Z" fill="#222222"/>
<path fill-rule="evenodd" clip-rule="evenodd" d="M139.041 257.714L121.259 190.535H104.511L86.7283 257.714H100.841L103.946 243.506H121.823L124.928 257.714H139.041ZM112.979 202.202L119.471 232.404H106.299L112.791 202.202H112.979Z" fill="#222222"/>
<path fill-rule="evenodd" clip-rule="evenodd" d="M142.375 273.991V207.094H154.794V212.457H154.983C156.425 210.074 158.025 208.38 159.781 207.376C161.6 206.31 163.827 205.777 166.461 205.777C171.793 205.777 175.713 207.878 178.222 212.081C180.731 216.221 181.986 222.995 181.986 232.404C181.986 241.813 180.731 248.556 178.222 252.633C175.713 256.71 171.793 258.749 166.461 258.749C164.015 258.749 161.914 258.31 160.157 257.431C158.464 256.49 156.927 255.016 155.547 253.009H155.359V273.991H142.375ZM156.582 219.984C155.767 222.744 155.359 226.884 155.359 232.404C155.359 237.924 155.767 242.095 156.582 244.918C157.46 247.678 159.342 249.057 162.227 249.057C165.05 249.057 166.869 247.678 167.685 244.918C168.563 242.095 169.002 237.924 169.002 232.404C169.002 226.884 168.563 222.744 167.685 219.984C166.869 217.162 165.05 215.75 162.227 215.75C159.342 215.75 157.46 217.162 156.582 219.984Z" fill="#222222"/>
<path fill-rule="evenodd" clip-rule="evenodd" d="M187.537 207.094V273.991H200.521V253.009H200.709C202.089 255.016 203.626 256.49 205.32 257.431C207.076 258.31 209.177 258.749 211.624 258.749C216.955 258.749 220.876 256.71 223.385 252.633C225.894 248.556 227.148 241.813 227.148 232.404C227.148 222.995 225.894 216.221 223.385 212.081C220.876 207.878 216.955 205.777 211.624 205.777C208.989 205.777 206.762 206.31 204.943 207.376C203.187 208.38 201.588 210.074 200.145 212.457H199.957V207.094H187.537ZM200.521 232.404C200.521 226.884 200.929 222.744 201.744 219.984C202.623 217.162 204.504 215.75 207.39 215.75C210.212 215.75 212.031 217.162 212.847 219.984C213.725 222.744 214.164 226.884 214.164 232.404C214.164 237.924 213.725 242.095 212.847 244.918C212.031 247.678 210.212 249.057 207.39 249.057C204.504 249.057 202.623 247.678 201.744 244.918C200.929 242.095 200.521 237.924 200.521 232.404Z" fill="#222222"/>
<path d="M233.17 257.714V190.535H246.154V257.714H233.17Z" fill="#222222"/>
<path fill-rule="evenodd" clip-rule="evenodd" d="M311.563 234.379H285.877V238.425C285.877 239.931 285.971 241.405 286.159 242.847C286.41 244.227 286.787 245.482 287.288 246.611C287.79 247.677 288.449 248.555 289.264 249.245C290.08 249.873 291.083 250.186 292.275 250.186C294.47 250.186 296.07 249.402 297.074 247.834C298.077 246.266 298.767 243.882 299.144 240.683H310.81C310.56 246.579 308.991 251.064 306.106 254.138C303.221 257.211 298.673 258.748 292.463 258.748C287.759 258.748 284.089 257.964 281.455 256.396C278.82 254.828 276.876 252.758 275.621 250.186C274.367 247.614 273.583 244.729 273.269 241.53C273.018 238.331 272.893 235.132 272.893 231.933C272.893 228.546 273.112 225.284 273.552 222.148C274.053 219.012 274.994 216.22 276.374 213.774C277.817 211.328 279.855 209.383 282.49 207.941C285.124 206.498 288.637 205.777 293.028 205.777C296.791 205.777 299.865 206.404 302.248 207.658C304.695 208.85 306.608 210.575 307.988 212.833C309.368 215.029 310.309 217.726 310.81 220.925C311.312 224.061 311.563 227.574 311.563 231.463V234.379ZM285.877 226.664H299.144C299.081 224.72 298.955 223.026 298.767 221.583C298.579 220.078 298.234 218.823 297.732 217.82C297.293 216.754 296.634 215.969 295.756 215.468C294.941 214.903 293.875 214.621 292.557 214.621C291.24 214.621 290.142 214.934 289.264 215.562C288.449 216.126 287.79 216.91 287.288 217.914C286.787 218.855 286.41 219.921 286.159 221.113C285.971 222.305 285.877 223.496 285.877 224.688V226.664Z" fill="#222222"/>
<path fill-rule="evenodd" clip-rule="evenodd" d="M342.414 252.35V257.713H354.833V190.534H341.849V211.798H341.661C340.281 209.791 338.713 208.286 336.957 207.282C335.263 206.278 333.193 205.777 330.747 205.777C325.415 205.777 321.495 207.878 318.986 212.08C316.477 216.22 315.222 222.995 315.222 232.404C315.222 241.812 316.477 248.555 318.986 252.633C321.495 256.71 325.415 258.748 330.747 258.748C333.381 258.748 335.577 258.278 337.333 257.337C339.152 256.396 340.783 254.734 342.226 252.35H342.414ZM328.206 232.404C328.206 226.884 328.614 222.744 329.43 219.984C330.308 217.161 332.158 215.75 334.981 215.75C337.866 215.75 339.717 217.161 340.532 219.984C341.41 222.744 341.849 226.884 341.849 232.404C341.849 237.923 341.41 242.095 340.532 244.917C339.717 247.677 337.866 249.057 334.981 249.057C332.158 249.057 330.308 247.677 329.43 244.917C328.614 242.095 328.206 237.923 328.206 232.404Z" fill="#222222"/>
<path d="M413.349 190.533H374.869V257.712H413.351V246.61H388.418V228.545H410.999V217.442H388.418V201.636H413.349V190.533Z" fill="#222222"/>
<path d="M430.708 190.533H416.681L431.649 257.712H449.055L464.485 190.533H450.466L440.493 240.212H440.211L430.708 190.533Z" fill="#222222"/>
</svg>
