<svg width="541" height="339" viewBox="0 0 541 339" fill="none" xmlns="http://www.w3.org/2000/svg">
<rect width="541" height="338.125" fill="#222222"/>
<path d="M468.291 206.623C473.803 206.623 478.086 202.267 478.086 196.701C478.086 191.135 473.803 186.78 468.291 186.78C462.779 186.78 458.496 191.135 458.496 196.701C458.496 202.267 462.779 206.623 468.291 206.623ZM468.291 204.852C463.882 204.852 460.412 201.273 460.412 196.701C460.412 192.129 463.882 188.551 468.291 188.551C472.701 188.551 476.171 192.129 476.171 196.701C476.171 201.273 472.701 204.852 468.291 204.852ZM466.267 201.563V197.894H468.165L470.659 201.563H472.882L470.225 197.695C471.58 197.261 472.394 196.159 472.394 194.749C472.394 192.87 471.147 191.731 469.086 191.731H464.46V201.563H466.267ZM466.267 193.412H468.707C469.791 193.412 470.424 193.918 470.424 194.822C470.424 195.798 469.791 196.358 468.707 196.358H466.267V193.412Z" fill="white"/>
<path d="M117.09 227.773L110.727 198.172H110.543L104.18 227.773H117.09ZM118.842 186.738L136.271 252.578H122.439L119.396 238.654H101.875L98.832 252.578H85L102.428 186.738H118.842Z" fill="white"/>
<path d="M139.538 202.967V268.531H152.263V247.967H152.447C153.8 249.935 155.306 251.379 156.966 252.301C158.687 253.162 160.747 253.592 163.144 253.592C168.37 253.592 172.212 251.594 174.671 247.599C177.13 243.603 178.359 236.994 178.359 227.773C178.359 218.551 177.13 211.912 174.671 207.855C172.212 203.736 168.37 201.676 163.144 201.676C160.562 201.676 158.38 202.199 156.597 203.244C154.876 204.228 153.308 205.887 151.894 208.223H151.71V202.967H139.538ZM152.263 227.773C152.263 222.363 152.663 218.305 153.462 215.6C154.322 212.834 156.167 211.451 158.995 211.451C161.761 211.451 163.544 212.834 164.343 215.6C165.204 218.305 165.634 222.363 165.634 227.773C165.634 233.182 165.204 237.271 164.343 240.037C163.544 242.742 161.761 244.094 158.995 244.094C156.167 244.094 154.322 242.742 153.462 240.037C152.663 237.271 152.263 233.182 152.263 227.773Z" fill="white"/>
<path d="M183.8 202.967V268.531H196.525V247.967H196.71C198.062 249.935 199.568 251.379 201.228 252.301C202.95 253.162 205.009 253.592 207.407 253.592C212.632 253.592 216.474 251.594 218.933 247.599C221.392 243.603 222.622 236.994 222.622 227.773C222.622 218.551 221.392 211.912 218.933 207.855C216.474 203.736 212.632 201.676 207.407 201.676C204.825 201.676 202.642 202.199 200.859 203.244C199.138 204.228 197.57 205.887 196.157 208.223H195.972V202.967H183.8ZM196.525 227.773C196.525 222.363 196.925 218.305 197.724 215.6C198.585 212.834 200.429 211.451 203.257 211.451C206.023 211.451 207.806 212.834 208.605 215.6C209.466 218.305 209.896 222.363 209.896 227.773C209.896 233.182 209.466 237.271 208.605 240.037C207.806 242.742 206.023 244.094 203.257 244.094C200.429 244.094 198.585 242.742 197.724 240.037C196.925 237.271 196.525 233.182 196.525 227.773Z" fill="white"/>
<path d="M228.523 186.738V252.578H241.249V186.738H228.523Z" fill="white"/>
<path d="M248.832 186V196.881H261.557V186H248.832ZM248.832 202.967V252.578H261.557V202.967H248.832Z" fill="white"/>
<path d="M293.182 222.147H280.18V220.211C280.18 219.043 280.272 217.875 280.457 216.707C280.703 215.539 281.072 214.494 281.563 213.571C282.055 212.588 282.701 211.819 283.5 211.266C284.361 210.651 285.436 210.344 286.727 210.344C288.018 210.344 289.063 210.621 289.863 211.174C290.723 211.666 291.369 212.434 291.799 213.479C292.291 214.463 292.629 215.692 292.813 217.168C292.998 218.582 293.121 220.242 293.182 222.147ZM280.18 229.709H305.354V226.85C305.354 223.039 305.109 219.596 304.617 216.522C304.125 213.387 303.203 210.744 301.85 208.592C300.498 206.379 298.623 204.688 296.225 203.52C293.889 202.291 290.877 201.676 287.188 201.676C282.885 201.676 279.443 202.383 276.861 203.797C274.279 205.211 272.281 207.117 270.867 209.514C269.514 211.912 268.592 214.647 268.1 217.721C267.67 220.795 267.455 223.992 267.455 227.311C267.455 230.447 267.578 233.582 267.824 236.717C268.131 239.852 268.899 242.68 270.129 245.201C271.358 247.721 273.264 249.75 275.846 251.287C278.428 252.824 282.024 253.592 286.635 253.592C292.721 253.592 297.178 252.086 300.006 249.074C302.834 246.061 304.371 241.666 304.617 235.887H293.182C292.813 239.022 292.137 241.358 291.154 242.895C290.17 244.432 288.602 245.201 286.451 245.201C285.283 245.201 284.299 244.893 283.5 244.279C282.701 243.602 282.055 242.742 281.563 241.697C281.072 240.59 280.703 239.36 280.457 238.008C280.272 236.594 280.18 235.149 280.18 233.674V229.709Z" fill="white"/>
<path d="M335.59 247.322V252.578H347.762V186.737H335.037V207.578H334.853C333.5 205.61 331.963 204.135 330.242 203.151C328.582 202.168 326.553 201.676 324.156 201.676C318.93 201.676 315.088 203.735 312.629 207.854C310.17 211.912 308.941 218.551 308.941 227.772C308.941 236.994 310.17 243.602 312.629 247.598C315.088 251.594 318.93 253.592 324.156 253.592C326.738 253.592 328.889 253.131 330.611 252.209C332.394 251.287 333.992 249.658 335.406 247.322H335.59ZM321.666 227.772C321.666 222.362 322.066 218.305 322.865 215.6C323.726 212.834 325.539 211.451 328.305 211.451C331.133 211.451 332.947 212.834 333.746 215.6C334.607 218.305 335.037 222.362 335.037 227.772C335.037 233.182 334.607 237.27 333.746 240.037C332.947 242.742 331.133 244.094 328.305 244.094C325.539 244.094 323.726 242.742 322.865 240.037C322.066 237.27 321.666 233.182 321.666 227.772Z" fill="white"/>
<path d="M367.399 186.736H405.112V197.618H380.677V213.109H402.809V223.991H380.677V241.696H405.114V252.577H367.399V186.736Z" fill="white"/>
<path d="M408.378 186.736H422.125L431.438 235.425H431.715L441.49 186.736H455.229L440.106 252.576H423.047L408.378 186.736Z" fill="white"/>
</svg>
