<svg width="48" height="48" viewBox="0 0 48 48" fill="none" xmlns="http://www.w3.org/2000/svg">
<path d="M0 19.2C0 12.4794 0 9.11906 1.30792 6.55211C2.4584 4.29417 4.29417 2.4584 6.55211 1.30792C9.11906 0 12.4794 0 19.2 0H28.8C35.5206 0 38.8809 0 41.4479 1.30792C43.7058 2.4584 45.5416 4.29417 46.6921 6.55211C48 9.11906 48 12.4794 48 19.2V28.8C48 35.5206 48 38.8809 46.6921 41.4479C45.5416 43.7058 43.7058 45.5416 41.4479 46.6921C38.8809 48 35.5206 48 28.8 48H19.2C12.4794 48 9.11906 48 6.55211 46.6921C4.29417 45.5416 2.4584 43.7058 1.30792 41.4479C0 38.8809 0 35.5206 0 28.8V19.2Z" fill="#E83E3A"/>
<path fill-rule="evenodd" clip-rule="evenodd" d="M20.1981 10.7998L10.7695 20.2284L14.541 23.9998L10.7695 27.7712L20.1981 37.1998L23.9695 33.4284L27.741 37.1998L37.1695 27.7712L33.3981 23.9998L37.1695 20.2284L27.741 10.7998L23.9695 14.5712L20.1981 10.7998ZM23.9695 14.5712L33.3981 23.9998L23.9695 33.4284L14.541 23.9998L23.9695 14.5712Z" fill="#222222"/>
</svg>
