<svg width="48" height="48" viewBox="0 0 48 48" fill="none" xmlns="http://www.w3.org/2000/svg">
<mask id="mask0_2922_11969" style="mask-type:alpha" maskUnits="userSpaceOnUse" x="0" y="0" width="48" height="48">
<path d="M0 19.2C0 12.4794 0 9.11906 1.30792 6.55211C2.4584 4.29417 4.29417 2.4584 6.55211 1.30792C9.11906 0 12.4794 0 19.2 0H28.8C35.5206 0 38.8809 0 41.4479 1.30792C43.7058 2.4584 45.5416 4.29417 46.6921 6.55211C48 9.11906 48 12.4794 48 19.2V28.8C48 35.5206 48 38.8809 46.6921 41.4479C45.5416 43.7058 43.7058 45.5416 41.4479 46.6921C38.8809 48 35.5206 48 28.8 48H19.2C12.4794 48 9.11906 48 6.55211 46.6921C4.29417 45.5416 2.4584 43.7058 1.30792 41.4479C0 38.8809 0 35.5206 0 28.8V19.2Z" fill="#5F81F7"/>
</mask>
<g mask="url(#mask0_2922_11969)">
<path fill-rule="evenodd" clip-rule="evenodd" d="M28.8 2.25H19.2C15.8026 2.25 13.3898 2.25175 11.5016 2.40602C9.63976 2.55814 8.48701 2.84728 7.57359 3.31269C5.73901 4.24745 4.24745 5.73901 3.31269 7.57359C2.84728 8.48701 2.55814 9.63976 2.40602 11.5016C2.25175 13.3898 2.25 15.8026 2.25 19.2V28.8C2.25 32.1974 2.25175 34.6102 2.40602 36.4984C2.55814 38.3602 2.84728 39.513 3.31269 40.4264C4.24745 42.261 5.73901 43.7525 7.57359 44.6873C8.48701 45.1527 9.63976 45.4419 11.5016 45.594C13.3898 45.7483 15.8026 45.75 19.2 45.75H28.8C32.1974 45.75 34.6102 45.7483 36.4984 45.594C38.3602 45.4419 39.513 45.1527 40.4264 44.6873C42.261 43.7525 43.7525 42.261 44.6873 40.4264C45.1527 39.513 45.4419 38.3602 45.594 36.4984C45.7483 34.6102 45.75 32.1974 45.75 28.8V19.2C45.75 15.8026 45.7483 13.3898 45.594 11.5016C45.4419 9.63976 45.1527 8.48701 44.6873 7.57359C43.7525 5.73901 42.261 4.24745 40.4264 3.31269C39.513 2.84728 38.3602 2.55814 36.4984 2.40602C34.6102 2.25175 32.1974 2.25 28.8 2.25ZM1.30792 6.55211C0 9.11906 0 12.4794 0 19.2V28.8C0 35.5206 0 38.8809 1.30792 41.4479C2.4584 43.7058 4.29417 45.5416 6.55211 46.6921C9.11906 48 12.4794 48 19.2 48H28.8C35.5206 48 38.8809 48 41.4479 46.6921C43.7058 45.5416 45.5416 43.7058 46.6921 41.4479C48 38.8809 48 35.5206 48 28.8V19.2C48 12.4794 48 9.11906 46.6921 6.55211C45.5416 4.29417 43.7058 2.4584 41.4479 1.30792C38.8809 0 35.5206 0 28.8 0H19.2C12.4794 0 9.11906 0 6.55211 1.30792C4.29417 2.4584 2.4584 4.29417 1.30792 6.55211Z" fill="#E83E3A"/>
<path d="M29.531 31.9883L28.1168 30.5742L22.4602 36.2308L19.6319 33.4025L18.2177 34.8166L22.4602 39.0591L29.531 31.9883Z" fill="#E83E3A"/>
<path fill-rule="evenodd" clip-rule="evenodd" d="M30.8038 12.8748C29.4207 10.4837 26.8354 8.875 23.8744 8.875C20.9133 8.875 18.3281 10.4837 16.9449 12.8748H11.8748C9.66579 12.8748 7.875 14.6656 7.875 16.8747V29.8742C7.875 32.0832 9.66579 33.874 11.8748 33.874H14.9296C15.4271 29.3742 19.242 25.8743 23.8744 25.8743C28.5067 25.8743 32.3217 29.3742 32.8191 33.874H35.8739C38.083 33.874 39.8738 32.0832 39.8738 29.8742V16.8747C39.8738 14.6656 38.083 12.8748 35.8739 12.8748H30.8038ZM31.622 14.8748C31.7865 15.514 31.874 16.1841 31.874 16.8747C31.874 20.2295 29.809 23.102 26.8807 24.2903C30.5408 25.3279 33.4244 28.213 34.4599 31.8741H35.8739C36.9784 31.8741 37.8738 30.9787 37.8738 29.8742V16.8747C37.8738 15.7702 36.9784 14.8748 35.8739 14.8748H31.622ZM13.2888 31.8741C14.3243 28.213 17.2079 25.3279 20.8681 24.2903C17.9397 23.102 15.8747 20.2295 15.8747 16.8747C15.8747 16.1841 15.9622 15.514 16.1267 14.8748H11.8748C10.7703 14.8748 9.87492 15.7702 9.87492 16.8747V29.8742C9.87492 30.9787 10.7703 31.8741 11.8748 31.8741H13.2888ZM17.8746 16.8747C17.8746 13.5611 20.5608 10.8749 23.8744 10.8749C27.1879 10.8749 29.8741 13.5611 29.8741 16.8747C29.8741 20.1883 27.1879 22.8745 23.8744 22.8745C20.5608 22.8745 17.8746 20.1883 17.8746 16.8747Z" fill="#E83E3A"/>
</g>
</svg>
