<svg width="48" height="48" viewBox="0 0 48 48" fill="none" xmlns="http://www.w3.org/2000/svg">
<mask id="mask0_2922_12028" style="mask-type:alpha" maskUnits="userSpaceOnUse" x="0" y="0" width="48" height="48">
<path d="M0 19.2C0 12.4794 0 9.11906 1.30792 6.55211C2.4584 4.29417 4.29417 2.4584 6.55211 1.30792C9.11906 0 12.4794 0 19.2 0H28.8C35.5206 0 38.8809 0 41.4479 1.30792C43.7058 2.4584 45.5416 4.29417 46.6921 6.55211C48 9.11906 48 12.4794 48 19.2V28.8C48 35.5206 48 38.8809 46.6921 41.4479C45.5416 43.7058 43.7058 45.5416 41.4479 46.6921C38.8809 48 35.5206 48 28.8 48H19.2C12.4794 48 9.11906 48 6.55211 46.6921C4.29417 45.5416 2.4584 43.7058 1.30792 41.4479C0 38.8809 0 35.5206 0 28.8V19.2Z" fill="#5F81F7"/>
</mask>
<g mask="url(#mask0_2922_12028)">
<path fill-rule="evenodd" clip-rule="evenodd" d="M28.8 2.25H19.2C15.8026 2.25 13.3898 2.25175 11.5016 2.40602C9.63976 2.55814 8.48701 2.84728 7.57359 3.31269C5.73901 4.24745 4.24745 5.73901 3.31269 7.57359C2.84728 8.48701 2.55814 9.63976 2.40602 11.5016C2.25175 13.3898 2.25 15.8026 2.25 19.2V28.8C2.25 32.1974 2.25175 34.6102 2.40602 36.4984C2.55814 38.3602 2.84728 39.513 3.31269 40.4264C4.24745 42.261 5.73901 43.7525 7.57359 44.6873C8.48701 45.1527 9.63976 45.4419 11.5016 45.594C13.3898 45.7483 15.8026 45.75 19.2 45.75H28.8C32.1974 45.75 34.6102 45.7483 36.4984 45.594C38.3602 45.4419 39.513 45.1527 40.4264 44.6873C42.261 43.7525 43.7525 42.261 44.6873 40.4264C45.1527 39.513 45.4419 38.3602 45.594 36.4984C45.7483 34.6102 45.75 32.1974 45.75 28.8V19.2C45.75 15.8026 45.7483 13.3898 45.594 11.5016C45.4419 9.63976 45.1527 8.48701 44.6873 7.57359C43.7525 5.73901 42.261 4.24745 40.4264 3.31269C39.513 2.84728 38.3602 2.55814 36.4984 2.40602C34.6102 2.25175 32.1974 2.25 28.8 2.25ZM1.30792 6.55211C0 9.11906 0 12.4794 0 19.2V28.8C0 35.5206 0 38.8809 1.30792 41.4479C2.4584 43.7058 4.29417 45.5416 6.55211 46.6921C9.11906 48 12.4794 48 19.2 48H28.8C35.5206 48 38.8809 48 41.4479 46.6921C43.7058 45.5416 45.5416 43.7058 46.6921 41.4479C48 38.8809 48 35.5206 48 28.8V19.2C48 12.4794 48 9.11906 46.6921 6.55211C45.5416 4.29417 43.7058 2.4584 41.4479 1.30792C38.8809 0 35.5206 0 28.8 0H19.2C12.4794 0 9.11906 0 6.55211 1.30792C4.29417 2.4584 2.4584 4.29417 1.30792 6.55211Z" fill="#E83E3A"/>
<path d="M38.125 17.25L36.625 15.75L30.625 21.75L27.625 18.75L26.125 20.25L30.625 24.75L38.125 17.25Z" fill="#E83E3A"/>
<path d="M36.625 23.25L38.125 24.75L30.625 32.25L26.125 27.75L27.625 26.25L30.625 29.25L36.625 23.25Z" fill="#E83E3A"/>
<path fill-rule="evenodd" clip-rule="evenodd" d="M22.436 11.184C22 12.0397 22 13.1598 22 15.4V32.6C22 34.8402 22 35.9603 22.436 36.816C22.8195 37.5686 23.4314 38.1805 24.184 38.564C25.0397 39 26.1598 39 28.4 39H35.6C37.8402 39 38.9603 39 39.816 38.564C40.5686 38.1805 41.1805 37.5686 41.564 36.816C42 35.9603 42 34.8402 42 32.6V15.4C42 13.1598 42 12.0397 41.564 11.184C41.1805 10.4314 40.5686 9.81947 39.816 9.43597C38.9603 9 37.8402 9 35.6 9H28.4C26.1598 9 25.0397 9 24.184 9.43597C23.4314 9.81947 22.8195 10.4314 22.436 11.184ZM35.6 11H28.4C27.2469 11 26.5023 11.0016 25.9357 11.0479C25.3923 11.0922 25.1909 11.1676 25.092 11.218C24.7157 11.4097 24.4097 11.7157 24.218 12.092C24.1676 12.1909 24.0922 12.3923 24.0479 12.9357C24.0016 13.5023 24 14.2469 24 15.4V32.6C24 33.7531 24.0016 34.4977 24.0479 35.0643C24.0922 35.6077 24.1676 35.8091 24.218 35.908C24.4097 36.2843 24.7157 36.5903 25.092 36.782C25.1909 36.8324 25.3923 36.9078 25.9357 36.9521C26.5023 36.9984 27.2469 37 28.4 37H35.6C36.7531 37 37.4977 36.9984 38.0643 36.9521C38.6077 36.9078 38.8091 36.8324 38.908 36.782C39.2843 36.5903 39.5903 36.2843 39.782 35.908C39.8324 35.8091 39.9078 35.6077 39.9521 35.0643C39.9984 34.4977 40 33.7531 40 32.6V15.4C40 14.2469 39.9984 13.5023 39.9521 12.9357C39.9078 12.3923 39.8324 12.1909 39.782 12.092C39.5903 11.7157 39.2843 11.4097 38.908 11.218C38.8091 11.1676 38.6077 11.0922 38.0643 11.0479C37.4977 11.0016 36.7531 11 35.6 11Z" fill="#E83E3A"/>
<path fill-rule="evenodd" clip-rule="evenodd" d="M14.75 16H0V14H14.75C17.6495 14 20 16.3505 20 19.25C20 22.1495 17.6495 24.5 14.75 24.5H10.75C8.95507 24.5 7.5 25.9551 7.5 27.75C7.5 29.5449 8.95507 31 10.75 31H12.126C12.5701 29.2748 14.1362 28 16 28C18.2091 28 20 29.7909 20 32C20 34.2091 18.2091 36 16 36C14.1362 36 12.5701 34.7252 12.126 33H10.75C7.8505 33 5.5 30.6495 5.5 27.75C5.5 24.8505 7.8505 22.5 10.75 22.5H14.75C16.5449 22.5 18 21.0449 18 19.25C18 17.4551 16.5449 16 14.75 16ZM16 34C17.1046 34 18 33.1046 18 32C18 30.8954 17.1046 30 16 30C14.8954 30 14 30.8954 14 32C14 33.1046 14.8954 34 16 34Z" fill="#E83E3A"/>
</g>
</svg>
