<svg width="48" height="48" viewBox="0 0 48 48" fill="none" xmlns="http://www.w3.org/2000/svg">
<mask id="mask0_2922_11947" style="mask-type:alpha" maskUnits="userSpaceOnUse" x="0" y="0" width="48" height="48">
<path d="M0 19.2C0 12.4794 0 9.11906 1.30792 6.55211C2.4584 4.29417 4.29417 2.4584 6.55211 1.30792C9.11906 0 12.4794 0 19.2 0H28.8C35.5206 0 38.8809 0 41.4479 1.30792C43.7058 2.4584 45.5416 4.29417 46.6921 6.55211C48 9.11906 48 12.4794 48 19.2V28.8C48 35.5206 48 38.8809 46.6921 41.4479C45.5416 43.7058 43.7058 45.5416 41.4479 46.6921C38.8809 48 35.5206 48 28.8 48H19.2C12.4794 48 9.11906 48 6.55211 46.6921C4.29417 45.5416 2.4584 43.7058 1.30792 41.4479C0 38.8809 0 35.5206 0 28.8V19.2Z" fill="#5F81F7"/>
</mask>
<g mask="url(#mask0_2922_11947)">
<path fill-rule="evenodd" clip-rule="evenodd" d="M28.8 2.25H19.2C15.8026 2.25 13.3898 2.25175 11.5016 2.40602C9.63976 2.55814 8.48701 2.84728 7.57359 3.31269C5.73901 4.24745 4.24745 5.73901 3.31269 7.57359C2.84728 8.48701 2.55814 9.63976 2.40602 11.5016C2.25175 13.3898 2.25 15.8026 2.25 19.2V28.8C2.25 32.1974 2.25175 34.6102 2.40602 36.4984C2.55814 38.3602 2.84728 39.513 3.31269 40.4264C4.24745 42.261 5.73901 43.7525 7.57359 44.6873C8.48701 45.1527 9.63976 45.4419 11.5016 45.594C13.3898 45.7483 15.8026 45.75 19.2 45.75H28.8C32.1974 45.75 34.6102 45.7483 36.4984 45.594C38.3602 45.4419 39.513 45.1527 40.4264 44.6873C42.261 43.7525 43.7525 42.261 44.6873 40.4264C45.1527 39.513 45.4419 38.3602 45.594 36.4984C45.7483 34.6102 45.75 32.1974 45.75 28.8V19.2C45.75 15.8026 45.7483 13.3898 45.594 11.5016C45.4419 9.63976 45.1527 8.48701 44.6873 7.57359C43.7525 5.73901 42.261 4.24745 40.4264 3.31269C39.513 2.84728 38.3602 2.55814 36.4984 2.40602C34.6102 2.25175 32.1974 2.25 28.8 2.25ZM1.30792 6.55211C0 9.11906 0 12.4794 0 19.2V28.8C0 35.5206 0 38.8809 1.30792 41.4479C2.4584 43.7058 4.29417 45.5416 6.55211 46.6921C9.11906 48 12.4794 48 19.2 48H28.8C35.5206 48 38.8809 48 41.4479 46.6921C43.7058 45.5416 45.5416 43.7058 46.6921 41.4479C48 38.8809 48 35.5206 48 28.8V19.2C48 12.4794 48 9.11906 46.6921 6.55211C45.5416 4.29417 43.7058 2.4584 41.4479 1.30792C38.8809 0 35.5206 0 28.8 0H19.2C12.4794 0 9.11906 0 6.55211 1.30792C4.29417 2.4584 2.4584 4.29417 1.30792 6.55211Z" fill="#E83E3A"/>
<path d="M15.7362 12.2681C17.2791 12.1434 19.9814 12 24.25 12C28.5186 12 31.2209 12.1434 32.7638 12.2681C34.1854 12.383 35.1875 13.5762 35.1875 14.9432V23.8125H13.3125V14.9432C13.3125 13.5762 14.3146 12.383 15.7362 12.2681Z" fill="#E83E3A"/>
<path fill-rule="evenodd" clip-rule="evenodd" d="M13.3125 24.6875C12.4375 26 12 26.875 12 29.0625V35.1875C12 35.6707 12.3918 36.0625 12.875 36.0625H15.5C15.9832 36.0625 16.375 35.6707 16.375 35.1875V33.2766C18.3684 33.3636 21.0136 33.4375 24.25 33.4375C27.4864 33.4375 30.1316 33.3636 32.125 33.2766V35.1875C32.125 35.6707 32.5168 36.0625 33 36.0625H35.625C36.1082 36.0625 36.5 35.6707 36.5 35.1875V29.0625C36.5 26.875 36.0625 26 35.1875 24.6875H13.3125ZM16.2875 30.6375C17.2057 30.6375 17.95 29.8932 17.95 28.975C17.95 28.0568 17.2057 27.3125 16.2875 27.3125C15.3693 27.3125 14.625 28.0568 14.625 28.975C14.625 29.8932 15.3693 30.6375 16.2875 30.6375ZM32.0375 30.6375C32.9557 30.6375 33.7 29.8932 33.7 28.975C33.7 28.0568 32.9557 27.3125 32.0375 27.3125C31.1193 27.3125 30.375 28.0568 30.375 28.975C30.375 29.8932 31.1193 30.6375 32.0375 30.6375Z" fill="#E83E3A"/>
<path d="M-11.2638 12.2681C-9.7209 12.1434 -7.01856 12 -2.75 12C1.51856 12 4.2209 12.1434 5.76378 12.2681C7.18542 12.383 8.1875 13.5762 8.1875 14.9432V23.8125H-13.6875V14.9432C-13.6875 13.5762 -12.6854 12.383 -11.2638 12.2681Z" fill="#E83E3A"/>
<path fill-rule="evenodd" clip-rule="evenodd" d="M-13.6875 24.6875C-14.5625 26 -15 26.875 -15 29.0625V35.1875C-15 35.6707 -14.6082 36.0625 -14.125 36.0625H-11.5C-11.0168 36.0625 -10.625 35.6707 -10.625 35.1875V33.2766C-8.63162 33.3636 -5.98638 33.4375 -2.75 33.4375C0.486378 33.4375 3.13162 33.3636 5.125 33.2766V35.1875C5.125 35.6707 5.51675 36.0625 6 36.0625H8.625C9.10825 36.0625 9.5 35.6707 9.5 35.1875V29.0625C9.5 26.875 9.0625 26 8.1875 24.6875H-13.6875ZM-10.7125 30.6375C-9.79433 30.6375 -9.05 29.8932 -9.05 28.975C-9.05 28.0568 -9.79433 27.3125 -10.7125 27.3125C-11.6307 27.3125 -12.375 28.0568 -12.375 28.975C-12.375 29.8932 -11.6307 30.6375 -10.7125 30.6375ZM5.0375 30.6375C5.95567 30.6375 6.7 29.8932 6.7 28.975C6.7 28.0568 5.95567 27.3125 5.0375 27.3125C4.11933 27.3125 3.375 28.0568 3.375 28.975C3.375 29.8932 4.11933 30.6375 5.0375 30.6375Z" fill="#E83E3A"/>
<path d="M42.7362 12.2681C44.2791 12.1434 46.9814 12 51.25 12C55.5186 12 58.2209 12.1434 59.7638 12.2681C61.1854 12.383 62.1875 13.5762 62.1875 14.9432V23.8125H40.3125V14.9432C40.3125 13.5762 41.3146 12.383 42.7362 12.2681Z" fill="#E83E3A"/>
<path fill-rule="evenodd" clip-rule="evenodd" d="M40.3125 24.6875C39.4375 26 39 26.875 39 29.0625V35.1875C39 35.6707 39.3918 36.0625 39.875 36.0625H42.5C42.9832 36.0625 43.375 35.6707 43.375 35.1875V33.2766C45.3684 33.3636 48.0136 33.4375 51.25 33.4375C54.4864 33.4375 57.1316 33.3636 59.125 33.2766V35.1875C59.125 35.6707 59.5168 36.0625 60 36.0625H62.625C63.1082 36.0625 63.5 35.6707 63.5 35.1875V29.0625C63.5 26.875 63.0625 26 62.1875 24.6875H40.3125ZM43.2875 30.6375C44.2057 30.6375 44.95 29.8932 44.95 28.975C44.95 28.0568 44.2057 27.3125 43.2875 27.3125C42.3693 27.3125 41.625 28.0568 41.625 28.975C41.625 29.8932 42.3693 30.6375 43.2875 30.6375ZM59.0375 30.6375C59.9557 30.6375 60.7 29.8932 60.7 28.975C60.7 28.0568 59.9557 27.3125 59.0375 27.3125C58.1193 27.3125 57.375 28.0568 57.375 28.975C57.375 29.8932 58.1193 30.6375 59.0375 30.6375Z" fill="#E83E3A"/>
</g>
</svg>
