<svg width="48" height="48" viewBox="0 0 48 48" fill="none" xmlns="http://www.w3.org/2000/svg">
<path d="M0 19.2C0 12.4794 0 9.11906 1.30792 6.55211C2.4584 4.29417 4.29417 2.4584 6.55211 1.30792C9.11906 0 12.4794 0 19.2 0H28.8C35.5206 0 38.8809 0 41.4479 1.30792C43.7058 2.4584 45.5416 4.29417 46.6921 6.55211C48 9.11906 48 12.4794 48 19.2V28.8C48 35.5206 48 38.8809 46.6921 41.4479C45.5416 43.7058 43.7058 45.5416 41.4479 46.6921C38.8809 48 35.5206 48 28.8 48H19.2C12.4794 48 9.11906 48 6.55211 46.6921C4.29417 45.5416 2.4584 43.7058 1.30792 41.4479C0 38.8809 0 35.5206 0 28.8V19.2Z" fill="white"/>
<path d="M20.1993 10.8007L23.9706 14.5719L22.4621 16.0804L18.6908 12.3092L20.1993 10.8007Z" fill="#222222"/>
<path d="M23.9706 14.5719L27.7418 10.8007L29.2503 12.3092L25.4791 16.0804L23.9706 14.5719Z" fill="#222222"/>
<path d="M14.5425 24L10.7712 27.7712L12.2797 29.2797L16.051 25.5085L14.5425 24Z" fill="#222222"/>
<path d="M37.1699 27.7712L33.3987 24L37.1699 20.2288L35.6614 18.7203L31.8902 22.4915L33.3987 24L31.8902 25.5085L35.6614 29.2797L37.1699 27.7712Z" fill="#222222"/>
<path d="M13.4111 30.4111L17.1823 26.6399L18.6908 28.1484L14.9196 31.9196L13.4111 30.4111Z" fill="#222222"/>
<path d="M30.3817 13.4405L26.6104 17.2118L28.1189 18.7203L31.8902 14.949L30.3817 13.4405Z" fill="#222222"/>
<path d="M17.5595 13.4405L21.3307 17.2118L19.8222 18.7203L16.051 14.949L17.5595 13.4405Z" fill="#222222"/>
<path d="M34.53 30.4111L30.7588 26.6399L29.2503 28.1484L33.0215 31.9196L34.53 30.4111Z" fill="#222222"/>
<path d="M16.051 33.051L19.8222 29.2797L21.3307 30.7882L17.5595 34.5595L16.051 33.051Z" fill="#222222"/>
<path d="M33.0215 16.0804L29.2503 19.8516L30.7588 21.3601L34.53 17.5889L33.0215 16.0804Z" fill="#222222"/>
<path d="M14.9196 16.0804L18.6908 19.8516L17.1823 21.3601L13.4111 17.5889L14.9196 16.0804Z" fill="#222222"/>
<path d="M31.8902 33.051L28.1189 29.2797L26.6104 30.7882L30.3817 34.5595L31.8902 33.051Z" fill="#222222"/>
<path d="M18.6908 35.6908L22.4621 31.9196L23.9706 33.4281L20.1993 37.1993L18.6908 35.6908Z" fill="#222222"/>
<path d="M12.2797 18.7203L16.051 22.4915L14.5425 24L10.7712 20.2288L12.2797 18.7203Z" fill="#222222"/>
<path d="M29.2503 35.6908L25.4791 31.9196L23.9706 33.4281L27.7418 37.1993L29.2503 35.6908Z" fill="#222222"/>
</svg>
