<svg width="48" height="48" viewBox="0 0 48 48" fill="none" xmlns="http://www.w3.org/2000/svg">
<path d="M20.1984 10.8008L23.9696 14.572L22.4611 16.0805L18.6899 12.3092L20.1984 10.8008Z" fill="white"/>
<path d="M37.1689 27.7713L33.3977 24.0001L31.8892 25.5086L35.6605 29.2798L37.1689 27.7713Z" fill="white"/>
<path d="M10.7703 27.7713L14.5415 24.0001L10.7703 20.2288L12.2788 18.7203L16.05 22.4916L14.5415 24.0001L16.05 25.5086L12.2788 29.2798L10.7703 27.7713Z" fill="white"/>
<path d="M30.7578 26.6399L34.5291 30.4112L33.0206 31.9197L29.2494 28.1484L30.7578 26.6399Z" fill="white"/>
<path d="M17.5585 13.4406L21.3298 17.2119L19.8213 18.7203L16.05 14.9491L17.5585 13.4406Z" fill="white"/>
<path d="M17.1814 26.6399L13.4102 30.4112L14.9187 31.9197L18.6899 28.1484L17.1814 26.6399Z" fill="white"/>
<path d="M31.8892 33.051L28.118 29.2798L26.6095 30.7883L30.3807 34.5595L31.8892 33.051Z" fill="white"/>
<path d="M18.6899 19.8517L14.9187 16.0805L13.4102 17.589L17.1814 21.3602L18.6899 19.8517Z" fill="white"/>
<path d="M16.05 33.051L19.8213 29.2798L21.3298 30.7883L17.5585 34.5595L16.05 33.051Z" fill="white"/>
<path d="M25.4781 31.9197L29.2494 35.6909L27.7409 37.1994L23.9696 33.4282L20.1984 37.1994L18.6899 35.6909L22.4611 31.9197L23.9696 33.4282L25.4781 31.9197Z" fill="white"/>
<path d="M30.5689 10.7997H32.7689V15.1997H37.1689V17.3997H32.7689V21.7997H30.5689V17.3997H26.1689V15.1997H30.5689V10.7997Z" fill="white"/>
<path fill-rule="evenodd" clip-rule="evenodd" d="M1.30792 6.55211C0 9.11906 0 12.4794 0 19.2V28.8C0 35.5206 0 38.8809 1.30792 41.4479C2.4584 43.7058 4.29417 45.5416 6.55211 46.6921C9.11906 48 12.4794 48 19.2 48H28.8C35.5206 48 38.8809 48 41.4479 46.6921C43.7058 45.5416 45.5416 43.7058 46.6921 41.4479C48 38.8809 48 35.5206 48 28.8V19.2C48 12.4794 48 9.11906 46.6921 6.55211C45.5416 4.29417 43.7058 2.4584 41.4479 1.30792C38.8809 0 35.5206 0 28.8 0H19.2C12.4794 0 9.11906 0 6.55211 1.30792C4.29417 2.4584 2.4584 4.29417 1.30792 6.55211ZM28.8 1.5H19.2C15.8149 1.5 13.3663 1.50117 11.4406 1.65851C9.53231 1.81442 8.26987 2.11617 7.2331 2.64443C5.2574 3.6511 3.6511 5.2574 2.64443 7.2331C2.11617 8.26987 1.81442 9.53231 1.65851 11.4406C1.50117 13.3663 1.5 15.8149 1.5 19.2V28.8C1.5 32.1851 1.50117 34.6337 1.65851 36.5594C1.81442 38.4677 2.11617 39.7301 2.64443 40.7669C3.6511 42.7426 5.2574 44.3489 7.2331 45.3556C8.26987 45.8838 9.53231 46.1856 11.4406 46.3415C13.3663 46.4988 15.8149 46.5 19.2 46.5H28.8C32.1851 46.5 34.6337 46.4988 36.5594 46.3415C38.4677 46.1856 39.7301 45.8838 40.7669 45.3556C42.7426 44.3489 44.3489 42.7426 45.3556 40.7669C45.8838 39.7301 46.1856 38.4677 46.3415 36.5594C46.4988 34.6337 46.5 32.1851 46.5 28.8V19.2C46.5 15.8149 46.4988 13.3663 46.3415 11.4406C46.1856 9.53231 45.8838 8.26987 45.3556 7.2331C44.3489 5.2574 42.7426 3.6511 40.7669 2.64443C39.7301 2.11617 38.4677 1.81442 36.5594 1.65851C34.6337 1.50117 32.1851 1.5 28.8 1.5Z" fill="white"/>
</svg>
