<svg width="48" height="48" viewBox="0 0 48 48" fill="none" xmlns="http://www.w3.org/2000/svg">
<mask id="mask0_2921_11861" style="mask-type:alpha" maskUnits="userSpaceOnUse" x="0" y="0" width="48" height="48">
<path d="M0 19.2C0 12.4794 0 9.11906 1.30792 6.55211C2.4584 4.29417 4.29417 2.4584 6.55211 1.30792C9.11906 0 12.4794 0 19.2 0H28.8C35.5206 0 38.8809 0 41.4479 1.30792C43.7058 2.4584 45.5416 4.29417 46.6921 6.55211C48 9.11906 48 12.4794 48 19.2V28.8C48 35.5206 48 38.8809 46.6921 41.4479C45.5416 43.7058 43.7058 45.5416 41.4479 46.6921C38.8809 48 35.5206 48 28.8 48H19.2C12.4794 48 9.11906 48 6.55211 46.6921C4.29417 45.5416 2.4584 43.7058 1.30792 41.4479C0 38.8809 0 35.5206 0 28.8V19.2Z" fill="#5F81F7"/>
</mask>
<g mask="url(#mask0_2921_11861)">
<path d="M0 19.2C0 12.4794 0 9.11906 1.30792 6.55211C2.4584 4.29417 4.29417 2.4584 6.55211 1.30792C9.11906 0 12.4794 0 19.2 0H28.8C35.5206 0 38.8809 0 41.4479 1.30792C43.7058 2.4584 45.5416 4.29417 46.6921 6.55211C48 9.11906 48 12.4794 48 19.2V28.8C48 35.5206 48 38.8809 46.6921 41.4479C45.5416 43.7058 43.7058 45.5416 41.4479 46.6921C38.8809 48 35.5206 48 28.8 48H19.2C12.4794 48 9.11906 48 6.55211 46.6921C4.29417 45.5416 2.4584 43.7058 1.30792 41.4479C0 38.8809 0 35.5206 0 28.8V19.2Z" fill="#455DD9"/>
<g opacity="0.2">
<line x1="24.15" y1="-6.55671e-09" x2="24.15" y2="48" stroke="white" stroke-width="0.3"/>
<line x1="35.65" y1="-6.55671e-09" x2="35.65" y2="48" stroke="white" stroke-width="0.3"/>
<line x1="12.65" y1="-6.55671e-09" x2="12.65" y2="48" stroke="white" stroke-width="0.3"/>
<line x1="48" y1="24.15" y2="24.15" stroke="white" stroke-width="0.3"/>
<line x1="48" y1="12.65" y2="12.65" stroke="white" stroke-width="0.3"/>
<line x1="48" y1="35.65" y2="35.65" stroke="white" stroke-width="0.3"/>
</g>
<path d="M15.7362 12.2681C17.2791 12.1434 19.9814 12 24.25 12C28.5186 12 31.2209 12.1434 32.7638 12.2681C34.1854 12.383 35.1875 13.5762 35.1875 14.9432V23.8125H13.3125V14.9432C13.3125 13.5762 14.3146 12.383 15.7362 12.2681Z" fill="white"/>
<path fill-rule="evenodd" clip-rule="evenodd" d="M13.3125 24.6875C12.4375 26 12 26.875 12 29.0625V35.1875C12 35.6707 12.3918 36.0625 12.875 36.0625H15.5C15.9832 36.0625 16.375 35.6707 16.375 35.1875V33.2766C18.3684 33.3636 21.0136 33.4375 24.25 33.4375C27.4864 33.4375 30.1316 33.3636 32.125 33.2766V35.1875C32.125 35.6707 32.5168 36.0625 33 36.0625H35.625C36.1082 36.0625 36.5 35.6707 36.5 35.1875V29.0625C36.5 26.875 36.0625 26 35.1875 24.6875H13.3125ZM16.2875 30.6375C17.2057 30.6375 17.95 29.8932 17.95 28.975C17.95 28.0568 17.2057 27.3125 16.2875 27.3125C15.3693 27.3125 14.625 28.0568 14.625 28.975C14.625 29.8932 15.3693 30.6375 16.2875 30.6375ZM32.0375 30.6375C32.9557 30.6375 33.7 29.8932 33.7 28.975C33.7 28.0568 32.9557 27.3125 32.0375 27.3125C31.1193 27.3125 30.375 28.0568 30.375 28.975C30.375 29.8932 31.1193 30.6375 32.0375 30.6375Z" fill="white"/>
</g>
</svg>
