<svg width="48" height="48" viewBox="0 0 48 48" fill="none" xmlns="http://www.w3.org/2000/svg">
<mask id="mask0_2921_11823" style="mask-type:alpha" maskUnits="userSpaceOnUse" x="0" y="0" width="48" height="48">
<path d="M0 19.2C0 12.4794 0 9.11906 1.30792 6.55211C2.4584 4.29417 4.29417 2.4584 6.55211 1.30792C9.11906 0 12.4794 0 19.2 0H28.8C35.5206 0 38.8809 0 41.4479 1.30792C43.7058 2.4584 45.5416 4.29417 46.6921 6.55211C48 9.11906 48 12.4794 48 19.2V28.8C48 35.5206 48 38.8809 46.6921 41.4479C45.5416 43.7058 43.7058 45.5416 41.4479 46.6921C38.8809 48 35.5206 48 28.8 48H19.2C12.4794 48 9.11906 48 6.55211 46.6921C4.29417 45.5416 2.4584 43.7058 1.30792 41.4479C0 38.8809 0 35.5206 0 28.8V19.2Z" fill="#5F81F7"/>
</mask>
<g mask="url(#mask0_2921_11823)">
<path d="M0 19.2C0 12.4794 0 9.11906 1.30792 6.55211C2.4584 4.29417 4.29417 2.4584 6.55211 1.30792C9.11906 0 12.4794 0 19.2 0H28.8C35.5206 0 38.8809 0 41.4479 1.30792C43.7058 2.4584 45.5416 4.29417 46.6921 6.55211C48 9.11906 48 12.4794 48 19.2V28.8C48 35.5206 48 38.8809 46.6921 41.4479C45.5416 43.7058 43.7058 45.5416 41.4479 46.6921C38.8809 48 35.5206 48 28.8 48H19.2C12.4794 48 9.11906 48 6.55211 46.6921C4.29417 45.5416 2.4584 43.7058 1.30792 41.4479C0 38.8809 0 35.5206 0 28.8V19.2Z" fill="#455DD9"/>
<g opacity="0.2">
<line x1="24.15" y1="-6.55671e-09" x2="24.15" y2="48" stroke="white" stroke-width="0.3"/>
<line x1="35.65" y1="-6.55671e-09" x2="35.65" y2="48" stroke="white" stroke-width="0.3"/>
<line x1="12.65" y1="-6.55671e-09" x2="12.65" y2="48" stroke="white" stroke-width="0.3"/>
<line x1="48" y1="24.15" y2="24.15" stroke="white" stroke-width="0.3"/>
<line x1="48" y1="12.65" y2="12.65" stroke="white" stroke-width="0.3"/>
<line x1="48" y1="35.65" y2="35.65" stroke="white" stroke-width="0.3"/>
</g>
</g>
<path fill-rule="evenodd" clip-rule="evenodd" d="M24 36.625C25.2536 36.625 26.4695 36.4434 27.6228 36.1055L28.4842 33.4664C28.4607 33.4771 28.4372 33.4877 28.4137 33.4982C27.7317 33.8328 27.2298 33.3952 27.2169 32.739C27.1011 28.9688 29.9449 25.7262 33.6379 25.3016C34.307 25.2114 34.7574 25.5717 34.5258 26.3695C34.4534 26.6436 34.3705 26.9135 34.2776 27.1787H34.9646L35.6924 29.4083C36.6071 27.6257 37.125 25.6155 37.125 23.5C37.125 16.3199 31.1674 10.375 23.9872 10.375C16.8199 10.375 10.875 16.3199 10.875 23.5C10.875 30.6674 16.8327 36.625 24 36.625ZM14.954 17.4393C16.8456 14.5055 20.1783 12.5625 23.9743 12.5625C27.7702 12.5625 31.103 14.5055 33.0073 17.4265C33.535 18.1599 33.2776 18.9835 32.4155 18.9835H15.546C14.6967 18.9835 14.4265 18.1599 14.954 17.4393ZM23.9872 27C22.3916 27 21.1305 25.7262 21.1305 24.1305C21.1305 22.5607 22.3916 21.2868 23.9872 21.2868C25.5699 21.2868 26.8438 22.5607 26.8438 24.1305C26.8438 25.7262 25.5699 27 23.9872 27ZM13.4485 26.3695C13.2169 25.5717 13.6673 25.2114 14.3364 25.3016C18.0166 25.7262 20.8732 28.9559 20.7574 32.739C20.7445 33.3952 20.2555 33.8328 19.5607 33.4982C16.5239 32.1342 14.2849 29.5349 13.4485 26.3695Z" fill="white"/>
<path fill-rule="evenodd" clip-rule="evenodd" d="M31.1713 28.0537L28.375 36.6207H31.0229L31.4585 34.9168H34.0425L34.4782 36.6207H37.1261L34.3298 28.0537H31.1713ZM32.8099 30.096H32.6912L31.9124 33.1417H33.5886L32.8099 30.096Z" fill="white"/>
</svg>
