<svg width="48" height="48" viewBox="0 0 48 48" fill="none" xmlns="http://www.w3.org/2000/svg">
<mask id="mask0_2921_11834" style="mask-type:alpha" maskUnits="userSpaceOnUse" x="0" y="0" width="48" height="48">
<path d="M0 19.2C0 12.4794 0 9.11906 1.30792 6.55211C2.4584 4.29417 4.29417 2.4584 6.55211 1.30792C9.11906 0 12.4794 0 19.2 0H28.8C35.5206 0 38.8809 0 41.4479 1.30792C43.7058 2.4584 45.5416 4.29417 46.6921 6.55211C48 9.11906 48 12.4794 48 19.2V28.8C48 35.5206 48 38.8809 46.6921 41.4479C45.5416 43.7058 43.7058 45.5416 41.4479 46.6921C38.8809 48 35.5206 48 28.8 48H19.2C12.4794 48 9.11906 48 6.55211 46.6921C4.29417 45.5416 2.4584 43.7058 1.30792 41.4479C0 38.8809 0 35.5206 0 28.8V19.2Z" fill="#5F81F7"/>
</mask>
<g mask="url(#mask0_2921_11834)">
<path d="M0 19.2C0 12.4794 0 9.11906 1.30792 6.55211C2.4584 4.29417 4.29417 2.4584 6.55211 1.30792C9.11906 0 12.4794 0 19.2 0H28.8C35.5206 0 38.8809 0 41.4479 1.30792C43.7058 2.4584 45.5416 4.29417 46.6921 6.55211C48 9.11906 48 12.4794 48 19.2V28.8C48 35.5206 48 38.8809 46.6921 41.4479C45.5416 43.7058 43.7058 45.5416 41.4479 46.6921C38.8809 48 35.5206 48 28.8 48H19.2C12.4794 48 9.11906 48 6.55211 46.6921C4.29417 45.5416 2.4584 43.7058 1.30792 41.4479C0 38.8809 0 35.5206 0 28.8V19.2Z" fill="#455DD9"/>
<g opacity="0.2">
<line x1="24.15" y1="-6.55671e-09" x2="24.15" y2="48" stroke="white" stroke-width="0.3"/>
<line x1="35.65" y1="-6.55671e-09" x2="35.65" y2="48" stroke="white" stroke-width="0.3"/>
<line x1="12.65" y1="-6.55671e-09" x2="12.65" y2="48" stroke="white" stroke-width="0.3"/>
<line x1="48" y1="24.15" y2="24.15" stroke="white" stroke-width="0.3"/>
<line x1="48" y1="12.65" y2="12.65" stroke="white" stroke-width="0.3"/>
<line x1="48" y1="35.65" y2="35.65" stroke="white" stroke-width="0.3"/>
</g>
</g>
<path fill-rule="evenodd" clip-rule="evenodd" d="M11.75 29.25C11.75 27.0625 12.1875 26.1875 13.0625 24.875H34.9375C35.8125 26.1875 36.25 27.0625 36.25 29.25V35.375C36.25 35.8582 35.8582 36.25 35.375 36.25H32.75C32.2668 36.25 31.875 35.8582 31.875 35.375V33.4641C29.8816 33.5511 27.2364 33.625 24 33.625C20.7636 33.625 18.1184 33.5511 16.125 33.4641V35.375C16.125 35.8582 15.7332 36.25 15.25 36.25H12.625C12.1418 36.25 11.75 35.8582 11.75 35.375V29.25ZM17.7 29.1625C17.7 30.0807 16.9557 30.825 16.0375 30.825C15.1193 30.825 14.375 30.0807 14.375 29.1625C14.375 28.2443 15.1193 27.5 16.0375 27.5C16.9557 27.5 17.7 28.2443 17.7 29.1625ZM33.45 29.1625C33.45 30.0807 32.7057 30.825 31.7875 30.825C30.8693 30.825 30.125 30.0807 30.125 29.1625C30.125 28.2443 30.8693 27.5 31.7875 27.5C32.7057 27.5 33.45 28.2443 33.45 29.1625Z" fill="white"/>
<path fill-rule="evenodd" clip-rule="evenodd" d="M18.8 16.125H18.45C17.6861 16.125 17.2183 16.1264 16.8684 16.155C16.7054 16.1683 16.6068 16.185 16.5469 16.1991C16.5184 16.2058 16.5009 16.2114 16.4914 16.2148C16.4823 16.2181 16.4778 16.2204 16.4778 16.2204C16.3131 16.3043 16.1793 16.4381 16.0954 16.6028C16.0954 16.6028 16.0931 16.6073 16.0898 16.6164C16.0864 16.6259 16.0808 16.6434 16.0741 16.6719C16.06 16.7318 16.0433 16.8304 16.03 16.9934C16.0014 17.3433 16 17.8111 16 18.575V18.925C16 19.6889 16.0014 20.1567 16.03 20.5066C16.0433 20.6696 16.06 20.7682 16.0741 20.8281C16.0808 20.8566 16.0864 20.8741 16.0898 20.8836C16.0931 20.8927 16.0954 20.8972 16.0954 20.8972C16.1793 21.0619 16.3131 21.1957 16.4778 21.2796C16.4778 21.2796 16.4823 21.2819 16.4914 21.2852C16.5009 21.2886 16.5184 21.2942 16.5469 21.3009C16.6068 21.315 16.7054 21.3317 16.8684 21.345C17.2183 21.3736 17.6861 21.375 18.45 21.375H18.8C19.5639 21.375 20.0317 21.3736 20.3816 21.345C20.5446 21.3317 20.6432 21.315 20.7031 21.3009C20.7316 21.2942 20.7491 21.2886 20.7586 21.2852C20.7677 21.2819 20.7722 21.2796 20.7722 21.2796C20.9369 21.1957 21.0707 21.0619 21.1546 20.8972C21.1546 20.8972 21.1569 20.8927 21.1602 20.8836C21.1636 20.8741 21.1692 20.8566 21.1759 20.8281C21.19 20.7682 21.2067 20.6696 21.22 20.5066C21.2486 20.1567 21.25 19.6889 21.25 18.925V18.575C21.25 17.8111 21.2486 17.3433 21.22 16.9934C21.2067 16.8304 21.19 16.7318 21.1759 16.6719C21.1692 16.6434 21.1636 16.6259 21.1602 16.6164C21.1569 16.6073 21.1546 16.6028 21.1546 16.6028C21.0707 16.4381 20.9369 16.3043 20.7722 16.2204C20.7722 16.2204 20.7677 16.2181 20.7586 16.2148C20.7491 16.2114 20.7316 16.2058 20.7031 16.1991C20.6432 16.185 20.5446 16.1683 20.3816 16.155C20.0317 16.1264 19.5639 16.125 18.8 16.125ZM14.5361 15.8083C14.25 16.3698 14.25 17.1049 14.25 18.575V18.925C14.25 20.3951 14.25 21.1302 14.5361 21.6917C14.7878 22.1857 15.1893 22.5872 15.6833 22.8389C16.2448 23.125 16.9799 23.125 18.45 23.125H18.8C20.2701 23.125 21.0052 23.125 21.5667 22.8389C22.0607 22.5872 22.4622 22.1857 22.7139 21.6917C23 21.1302 23 20.3951 23 18.925V18.575C23 17.1049 23 16.3698 22.7139 15.8083C22.4622 15.3143 22.0607 14.9128 21.5667 14.6611C21.0052 14.375 20.2701 14.375 18.8 14.375H18.45C16.9799 14.375 16.2448 14.375 15.6833 14.6611C15.1893 14.9128 14.7878 15.3143 14.5361 15.8083Z" fill="white"/>
<path d="M28.25 14.375H30V17.875H33.5V19.625H30V23.125H28.25V19.625H24.75V17.875H28.25V14.375Z" fill="white"/>
</svg>
