<svg width="48" height="48" viewBox="0 0 48 48" fill="none" xmlns="http://www.w3.org/2000/svg">
<mask id="mask0_2921_11828" style="mask-type:alpha" maskUnits="userSpaceOnUse" x="0" y="0" width="48" height="48">
<path d="M0 19.2C0 12.4794 0 9.11906 1.30792 6.55211C2.4584 4.29417 4.29417 2.4584 6.55211 1.30792C9.11906 0 12.4794 0 19.2 0H28.8C35.5206 0 38.8809 0 41.4479 1.30792C43.7058 2.4584 45.5416 4.29417 46.6921 6.55211C48 9.11906 48 12.4794 48 19.2V28.8C48 35.5206 48 38.8809 46.6921 41.4479C45.5416 43.7058 43.7058 45.5416 41.4479 46.6921C38.8809 48 35.5206 48 28.8 48H19.2C12.4794 48 9.11906 48 6.55211 46.6921C4.29417 45.5416 2.4584 43.7058 1.30792 41.4479C0 38.8809 0 35.5206 0 28.8V19.2Z" fill="#5F81F7"/>
</mask>
<g mask="url(#mask0_2921_11828)">
<path d="M0 19.2C0 12.4794 0 9.11906 1.30792 6.55211C2.4584 4.29417 4.29417 2.4584 6.55211 1.30792C9.11906 0 12.4794 0 19.2 0H28.8C35.5206 0 38.8809 0 41.4479 1.30792C43.7058 2.4584 45.5416 4.29417 46.6921 6.55211C48 9.11906 48 12.4794 48 19.2V28.8C48 35.5206 48 38.8809 46.6921 41.4479C45.5416 43.7058 43.7058 45.5416 41.4479 46.6921C38.8809 48 35.5206 48 28.8 48H19.2C12.4794 48 9.11906 48 6.55211 46.6921C4.29417 45.5416 2.4584 43.7058 1.30792 41.4479C0 38.8809 0 35.5206 0 28.8V19.2Z" fill="#455DD9"/>
<g opacity="0.2">
<line x1="24.15" y1="-6.55671e-09" x2="24.15" y2="48" stroke="white" stroke-width="0.3"/>
<line x1="35.65" y1="-6.55671e-09" x2="35.65" y2="48" stroke="white" stroke-width="0.3"/>
<line x1="12.65" y1="-6.55671e-09" x2="12.65" y2="48" stroke="white" stroke-width="0.3"/>
<line x1="48" y1="24.15" y2="24.15" stroke="white" stroke-width="0.3"/>
<line x1="48" y1="12.65" y2="12.65" stroke="white" stroke-width="0.3"/>
<line x1="48" y1="35.65" y2="35.65" stroke="white" stroke-width="0.3"/>
</g>
<path fill-rule="evenodd" clip-rule="evenodd" d="M18.075 14.875H17.675C16.8019 14.875 16.2674 14.8766 15.8675 14.9092C15.6812 14.9245 15.5685 14.9436 15.5 14.9597C15.4674 14.9674 15.4474 14.9738 15.4366 14.9777C15.4262 14.9814 15.421 14.984 15.421 14.984C15.2328 15.0799 15.0799 15.2328 14.984 15.421C14.984 15.421 14.9814 15.4262 14.9777 15.4366C14.9738 15.4474 14.9674 15.4674 14.9597 15.5C14.9436 15.5685 14.9245 15.6812 14.9092 15.8675C14.8766 16.2674 14.875 16.8019 14.875 17.675V18.075C14.875 18.9481 14.8766 19.4826 14.9092 19.8825C14.9245 20.0688 14.9436 20.1815 14.9597 20.25C14.9674 20.2826 14.9738 20.3026 14.9777 20.3134C14.9814 20.3238 14.984 20.329 14.984 20.329C15.0799 20.5172 15.2328 20.6701 15.421 20.766C15.421 20.766 15.4262 20.7686 15.4366 20.7723C15.4474 20.7762 15.4674 20.7826 15.5 20.7903C15.5685 20.8064 15.6812 20.8255 15.8675 20.8408C16.2674 20.8734 16.8019 20.875 17.675 20.875H18.075C18.9481 20.875 19.4826 20.8734 19.8825 20.8408C20.0688 20.8255 20.1815 20.8064 20.25 20.7903C20.2826 20.7826 20.3026 20.7762 20.3134 20.7723C20.3238 20.7686 20.329 20.766 20.329 20.766C20.5172 20.6701 20.6701 20.5172 20.766 20.329C20.766 20.329 20.7686 20.3238 20.7723 20.3134C20.7762 20.3026 20.7826 20.2826 20.7903 20.25C20.8064 20.1815 20.8255 20.0688 20.8408 19.8825C20.8734 19.4826 20.875 18.9481 20.875 18.075V17.675C20.875 16.8019 20.8734 16.2674 20.8408 15.8675C20.8255 15.6812 20.8064 15.5685 20.7903 15.5C20.7826 15.4674 20.7762 15.4474 20.7723 15.4366C20.7686 15.4262 20.766 15.421 20.766 15.421C20.6701 15.2328 20.5172 15.0799 20.329 14.984C20.329 14.984 20.3238 14.9814 20.3134 14.9777C20.3026 14.9738 20.2826 14.9674 20.25 14.9597C20.1815 14.9436 20.0688 14.9245 19.8825 14.9092C19.4826 14.8766 18.9481 14.875 18.075 14.875ZM13.202 14.513C12.875 15.1548 12.875 15.9948 12.875 17.675V18.075C12.875 19.7552 12.875 20.5952 13.202 21.237C13.4896 21.8015 13.9485 22.2604 14.513 22.548C15.1548 22.875 15.9948 22.875 17.675 22.875H18.075C19.7552 22.875 20.5952 22.875 21.237 22.548C21.8015 22.2604 22.2604 21.8015 22.548 21.237C22.875 20.5952 22.875 19.7552 22.875 18.075V17.675C22.875 15.9948 22.875 15.1548 22.548 14.513C22.2604 13.9485 21.8015 13.4896 21.237 13.202C20.5952 12.875 19.7552 12.875 18.075 12.875H17.675C15.9948 12.875 15.1548 12.875 14.513 13.202C13.9485 13.4896 13.4896 13.9485 13.202 14.513Z" fill="white"/>
<path fill-rule="evenodd" clip-rule="evenodd" d="M18.075 26.875H17.675C16.8019 26.875 16.2674 26.8766 15.8675 26.9092C15.6812 26.9245 15.5685 26.9436 15.5 26.9597C15.4674 26.9674 15.4474 26.9738 15.4366 26.9777C15.4262 26.9814 15.421 26.984 15.421 26.984C15.2328 27.0799 15.0799 27.2328 14.984 27.421C14.984 27.421 14.9814 27.4262 14.9777 27.4366C14.9738 27.4474 14.9674 27.4674 14.9597 27.5C14.9436 27.5685 14.9245 27.6812 14.9092 27.8675C14.8766 28.2674 14.875 28.8019 14.875 29.675V30.075C14.875 30.9481 14.8766 31.4826 14.9092 31.8825C14.9245 32.0688 14.9436 32.1815 14.9597 32.25C14.9674 32.2826 14.9738 32.3026 14.9777 32.3134C14.9814 32.3238 14.984 32.329 14.984 32.329C15.0799 32.5172 15.2328 32.6701 15.421 32.766C15.421 32.766 15.4262 32.7686 15.4366 32.7723C15.4474 32.7762 15.4674 32.7826 15.5 32.7903C15.5685 32.8064 15.6812 32.8255 15.8675 32.8408C16.2674 32.8734 16.8019 32.875 17.675 32.875H18.075C18.9481 32.875 19.4826 32.8734 19.8825 32.8408C20.0688 32.8255 20.1815 32.8064 20.25 32.7903C20.2826 32.7826 20.3026 32.7762 20.3134 32.7723C20.3238 32.7686 20.329 32.766 20.329 32.766C20.5172 32.6701 20.6701 32.5172 20.766 32.329C20.766 32.329 20.7686 32.3238 20.7723 32.3134C20.7762 32.3026 20.7826 32.2826 20.7903 32.25C20.8064 32.1815 20.8255 32.0688 20.8408 31.8825C20.8734 31.4826 20.875 30.9481 20.875 30.075V29.675C20.875 28.8019 20.8734 28.2674 20.8408 27.8675C20.8255 27.6812 20.8064 27.5685 20.7903 27.5C20.7826 27.4674 20.7762 27.4474 20.7723 27.4366C20.7686 27.4262 20.766 27.421 20.766 27.421C20.6701 27.2328 20.5172 27.0799 20.329 26.984C20.329 26.984 20.3238 26.9814 20.3134 26.9777C20.3026 26.9738 20.2826 26.9674 20.25 26.9597C20.1815 26.9436 20.0688 26.9245 19.8825 26.9092C19.4826 26.8766 18.9481 26.875 18.075 26.875ZM13.202 26.513C12.875 27.1548 12.875 27.9948 12.875 29.675V30.075C12.875 31.7552 12.875 32.5952 13.202 33.237C13.4896 33.8015 13.9485 34.2604 14.513 34.548C15.1548 34.875 15.9948 34.875 17.675 34.875H18.075C19.7552 34.875 20.5952 34.875 21.237 34.548C21.8015 34.2604 22.2604 33.8015 22.548 33.237C22.875 32.5952 22.875 31.7552 22.875 30.075V29.675C22.875 27.9948 22.875 27.1548 22.548 26.513C22.2604 25.9485 21.8015 25.4896 21.237 25.202C20.5952 24.875 19.7552 24.875 18.075 24.875H17.675C15.9948 24.875 15.1548 24.875 14.513 25.202C13.9485 25.4896 13.4896 25.9485 13.202 26.513Z" fill="white"/>
<path fill-rule="evenodd" clip-rule="evenodd" d="M30.075 14.875H29.675C28.8019 14.875 28.2674 14.8766 27.8675 14.9092C27.6812 14.9245 27.5685 14.9436 27.5 14.9597C27.4674 14.9674 27.4474 14.9738 27.4366 14.9777C27.4262 14.9814 27.421 14.984 27.421 14.984C27.2328 15.0799 27.0799 15.2328 26.984 15.421C26.984 15.421 26.9814 15.4262 26.9777 15.4366C26.9738 15.4474 26.9674 15.4674 26.9597 15.5C26.9436 15.5685 26.9245 15.6812 26.9092 15.8675C26.8766 16.2674 26.875 16.8019 26.875 17.675V18.075C26.875 18.9481 26.8766 19.4826 26.9092 19.8825C26.9245 20.0688 26.9436 20.1815 26.9597 20.25C26.9674 20.2826 26.9738 20.3026 26.9777 20.3134C26.9814 20.3238 26.984 20.329 26.984 20.329C27.0799 20.5172 27.2328 20.6701 27.421 20.766C27.421 20.766 27.4262 20.7686 27.4366 20.7723C27.4474 20.7762 27.4674 20.7826 27.5 20.7903C27.5685 20.8064 27.6812 20.8255 27.8675 20.8408C28.2674 20.8734 28.8019 20.875 29.675 20.875H30.075C30.9481 20.875 31.4826 20.8734 31.8825 20.8408C32.0688 20.8255 32.1815 20.8064 32.25 20.7903C32.2826 20.7826 32.3026 20.7762 32.3134 20.7723C32.3238 20.7686 32.329 20.766 32.329 20.766C32.5172 20.6701 32.6701 20.5172 32.766 20.329C32.766 20.329 32.7686 20.3238 32.7723 20.3134C32.7762 20.3026 32.7826 20.2826 32.7903 20.25C32.8064 20.1815 32.8255 20.0688 32.8408 19.8825C32.8734 19.4826 32.875 18.9481 32.875 18.075V17.675C32.875 16.8019 32.8734 16.2674 32.8408 15.8675C32.8255 15.6812 32.8064 15.5685 32.7903 15.5C32.7826 15.4674 32.7762 15.4474 32.7723 15.4366C32.7686 15.4262 32.766 15.421 32.766 15.421C32.6701 15.2328 32.5172 15.0799 32.329 14.984C32.329 14.984 32.3238 14.9814 32.3134 14.9777C32.3026 14.9738 32.2826 14.9674 32.25 14.9597C32.1815 14.9436 32.0688 14.9245 31.8825 14.9092C31.4826 14.8766 30.9481 14.875 30.075 14.875ZM25.202 14.513C24.875 15.1548 24.875 15.9948 24.875 17.675V18.075C24.875 19.7552 24.875 20.5952 25.202 21.237C25.4896 21.8015 25.9485 22.2604 26.513 22.548C27.1548 22.875 27.9948 22.875 29.675 22.875H30.075C31.7552 22.875 32.5952 22.875 33.237 22.548C33.8015 22.2604 34.2604 21.8015 34.548 21.237C34.875 20.5952 34.875 19.7552 34.875 18.075V17.675C34.875 15.9948 34.875 15.1548 34.548 14.513C34.2604 13.9485 33.8015 13.4896 33.237 13.202C32.5952 12.875 31.7552 12.875 30.075 12.875H29.675C27.9948 12.875 27.1548 12.875 26.513 13.202C25.9485 13.4896 25.4896 13.9485 25.202 14.513Z" fill="white"/>
<path d="M28.875 24.875H30.875V28.875H34.875V30.875H30.875V34.875H28.875V30.875H24.875V28.875H28.875V24.875Z" fill="white"/>
</g>
</svg>
